<svg viewBox="0 0 1024 1024" xmlns="http://www.w3.org/2000/svg" role="img" aria-label="rekk app icon — LCD">
  <defs>
    <linearGradient id="l-chassis" x1="0" y1="0" x2="0" y2="1">
      <stop offset="0" stop-color="#2a2a2e"></stop>
      <stop offset=".55" stop-color="#15151a"></stop>
      <stop offset="1" stop-color="#050507"></stop>
    </linearGradient>
    <linearGradient id="l-bg" x1="0" y1="0" x2="0" y2="1">
      <stop offset="0" stop-color="#06100a"></stop>
      <stop offset="1" stop-color="#0c1a10"></stop>
    </linearGradient>
    <radialGradient id="l-vig" cx="0.5" cy="0.5" r="0.6">
      <stop offset=".55" stop-color="rgba(0,0,0,0)"></stop>
      <stop offset="1" stop-color="rgba(0,0,0,.5)"></stop>
    </radialGradient>
  </defs>

  
  <rect width="1024" height="1024" rx="224" fill="url(#l-chassis)"></rect>
  <rect x="40" y="40" width="944" height="2" rx="1" fill="rgba(255,255,255,.1)"></rect>

  
  <g>
    <rect x="100" y="180" width="824" height="664" rx="40" fill="url(#l-bg)" stroke="#000" stroke-width="4"></rect>
    <rect x="100" y="180" width="824" height="664" rx="40" fill="url(#l-vig)"></rect>

    
    <g opacity=".5">
      <g fill="rgba(0,0,0,.35)">
        
        <rect x="100" y="180" width="824" height="3"></rect>
        <rect x="100" y="200" width="824" height="3"></rect>
        <rect x="100" y="220" width="824" height="3"></rect>
        <rect x="100" y="240" width="824" height="3"></rect>
        <rect x="100" y="260" width="824" height="3"></rect>
        <rect x="100" y="280" width="824" height="3"></rect>
        <rect x="100" y="300" width="824" height="3"></rect>
        <rect x="100" y="320" width="824" height="3"></rect>
        <rect x="100" y="340" width="824" height="3"></rect>
        <rect x="100" y="360" width="824" height="3"></rect>
        <rect x="100" y="380" width="824" height="3"></rect>
        <rect x="100" y="400" width="824" height="3"></rect>
        <rect x="100" y="420" width="824" height="3"></rect>
        <rect x="100" y="440" width="824" height="3"></rect>
        <rect x="100" y="460" width="824" height="3"></rect>
        <rect x="100" y="480" width="824" height="3"></rect>
        <rect x="100" y="500" width="824" height="3"></rect>
        <rect x="100" y="520" width="824" height="3"></rect>
        <rect x="100" y="540" width="824" height="3"></rect>
        <rect x="100" y="560" width="824" height="3"></rect>
        <rect x="100" y="580" width="824" height="3"></rect>
        <rect x="100" y="600" width="824" height="3"></rect>
        <rect x="100" y="620" width="824" height="3"></rect>
        <rect x="100" y="640" width="824" height="3"></rect>
        <rect x="100" y="660" width="824" height="3"></rect>
        <rect x="100" y="680" width="824" height="3"></rect>
        <rect x="100" y="700" width="824" height="3"></rect>
        <rect x="100" y="720" width="824" height="3"></rect>
        <rect x="100" y="740" width="824" height="3"></rect>
        <rect x="100" y="760" width="824" height="3"></rect>
        <rect x="100" y="780" width="824" height="3"></rect>
        <rect x="100" y="800" width="824" height="3"></rect>
        <rect x="100" y="820" width="824" height="3"></rect>
      </g>
    </g>

    
    <g transform="translate(209 312)" fill="#d4ffd6" style="filter: drop-shadow(0 0 8px rgba(125,255,154,.7)) drop-shadow(0 0 22px rgba(125,255,154,.35));">
      
      <rect x="0" y="0" width="36" height="160"></rect>
      <rect x="0" y="0" width="124" height="36"></rect>
      <rect x="0" y="68" width="124" height="34"></rect>
      <rect x="88" y="0" width="36" height="102"></rect>
      <rect x="88" y="102" width="36" height="58"></rect>
      
      <g transform="translate(170 0)" fill="#d4ffd6">
        <rect x="0" y="0" width="36" height="160"></rect>
        <rect x="0" y="0" width="118" height="36"></rect>
        <rect x="0" y="62" width="98" height="34"></rect>
        <rect x="0" y="124" width="118" height="36"></rect>
      </g>
      
      <g transform="translate(330 0)" fill="#d4ffd6">
        <rect x="0" y="0" width="36" height="160"></rect>
        <rect x="40" y="62" width="20" height="36"></rect>
        <rect x="60" y="36" width="20" height="26"></rect>
        <rect x="80" y="0" width="36" height="36"></rect>
        <rect x="60" y="98" width="20" height="26"></rect>
        <rect x="80" y="124" width="36" height="36"></rect>
      </g>
      
      <g transform="translate(490 0)" fill="#d4ffd6">
        <rect x="0" y="0" width="36" height="160"></rect>
        <rect x="40" y="62" width="20" height="36"></rect>
        <rect x="60" y="36" width="20" height="26"></rect>
        <rect x="80" y="0" width="36" height="36"></rect>
        <rect x="60" y="98" width="20" height="26"></rect>
        <rect x="80" y="124" width="36" height="36"></rect>
      </g>
    </g>

    
    <g transform="translate(159 552)" fill="#7dff9a" style="filter: drop-shadow(0 0 6px rgba(125,255,154,.6));">
      
      
      <rect x="0" y="60" width="22" height="40"></rect>
      <rect x="36" y="40" width="22" height="80"></rect>
      <rect x="72" y="20" width="22" height="120"></rect>
      <rect x="108" y="0" width="22" height="160"></rect>
      <rect x="144" y="20" width="22" height="120"></rect>
      <rect x="180" y="50" width="22" height="60"></rect>
      <rect x="216" y="30" width="22" height="100"></rect>
      <rect x="252" y="10" width="22" height="140"></rect>
      <rect x="288" y="40" width="22" height="80"></rect>
      <rect x="324" y="60" width="22" height="40"></rect>
      <rect x="360" y="20" width="22" height="120"></rect>
      <rect x="396" y="0" width="22" height="160"></rect>
      <rect x="432" y="30" width="22" height="100"></rect>
      <rect x="468" y="50" width="22" height="60"></rect>
      <rect x="504" y="20" width="22" height="120"></rect>
      <rect x="540" y="40" width="22" height="80"></rect>
      <rect x="576" y="60" width="22" height="40"></rect>
      <rect x="612" y="30" width="22" height="100"></rect>
      <rect x="648" y="10" width="22" height="140"></rect>
      <rect x="684" y="50" width="22" height="60"></rect>
    </g>

  </g>

  
  <rect width="1024" height="1024" rx="224" fill="none" stroke="rgba(0,0,0,.6)" stroke-width="2"></rect>
</svg>